<?xml version="1.0" encoding="utf-8"?>
<!-- Generator: Adobe Illustrator 24.0.1, SVG Export Plug-In . SVG Version: 6.00 Build 0)  -->
<svg version="1.1" id="katman_1" xmlns="http://www.w3.org/2000/svg" xmlns:xlink="http://www.w3.org/1999/xlink" x="0px" y="0px"
	 viewBox="0 0 465 193" style="enable-background:new 0 0 465 193;" xml:space="preserve">
<style type="text/css">
	.st0{fill:#FF2C2C;}
</style>
<path class="st0" d="M79.1,48.9C79.1,32.9,89,20,101.2,20s22.1,12.9,22.1,28.8s-9.9,28.8-22.1,28.8S79.1,64.8,79.1,48.9z"/>
<path d="M102.6,90.5v20.8c0,9.2,0,15.7-0.3,20.8c-0.3,5-0.9,8.1-1.9,10.4c-1.9,4.7-4.8,8.5-8.3,10.9c-1.8,1.2-4.2,2-8,2.4
	c-3.9,0.4-8.9,0.4-15.9,0.4H53.5c-7,0-12,0-15.9-0.4c-3.8-0.4-6.2-1.2-8-2.4c-3.6-2.4-6.5-6.2-8.3-10.9c-1-2.4-1.6-5.4-1.9-10.4
	c-0.3-5.1-0.3-11.6-0.3-20.8V92.1c0-9.2,0-15.7,0.3-20.8c0.3-5,0.9-8.1,1.9-10.4c1.9-4.7,4.8-8.5,8.3-10.9c1.8-1.2,4.2-2,8-2.4
	c3.9-0.4,8.9-0.4,15.9-0.4h15.9c0.1-4.5,0.8-8.8,2-12.8H53.2c-6.8,0-12.2,0-16.5,0.5c-4.5,0.5-8.2,1.5-11.7,3.8
	C19.7,42.3,15.3,48,12.5,55c-1.8,4.5-2.6,9.5-2.9,15.3C9.2,75.9,9.2,83,9.2,91.8v19.7c0,8.8,0,15.9,0.4,21.6
	c0.4,5.8,1.1,10.8,2.9,15.3c2.8,7,7.2,12.7,12.5,16.3c3.5,2.4,7.3,3.4,11.7,3.8c4.3,0.5,9.7,0.5,16.5,0.5h15.1
	c6.8,0,12.2,0,16.5-0.5c4.5-0.5,8.2-1.5,11.7-3.8c5.4-3.6,9.7-9.3,12.5-16.3c1.8-4.5,2.6-9.5,2.9-15.3c0.4-5.7,0.4-12.7,0.4-21.6
	V87.9C109.3,89.4,106,90.3,102.6,90.5z"/>
<path d="M186.5,89.4c0,3.9-0.7,7.6-2.2,11.1c-1.4,3.4-3.6,6.2-6.7,8.3c-3,2.1-6.8,3.2-11.5,3.2h-9.4v28.3h-11.3V66.6h20.7
	c4.4,0,8.1,1,11.1,3c3.1,2,5.4,4.7,6.9,8.1C185.7,81.1,186.5,85,186.5,89.4z M165.7,100c3.1,0,5.4-0.9,6.9-2.7
	c1.5-1.9,2.3-4.5,2.3-7.9c0-7.2-3.1-10.8-9.2-10.8h-9V100H165.7z"/>
<path d="M202.6,90.9c1.5-3.1,3.3-5.5,5.7-7.3c2.4-1.8,5.1-2.6,8.1-2.6v15.5h-3c-3.6,0-6.2,1.1-8.1,3.3c-1.8,2.2-2.7,6-2.7,11.4v29.1
	h-11.3V81.8h11.3V90.9z"/>
<path d="M240.5,141.1c-4.3,0-8.2-1.2-11.6-3.7c-3.4-2.5-6.2-6.1-8.2-10.6c-1.9-4.6-2.9-9.8-2.9-15.8s1-11.2,3-15.8
	c2-4.6,4.8-8.1,8.3-10.5c3.5-2.5,7.4-3.8,11.7-3.8c4.3,0,8.2,1.3,11.7,3.8c3.5,2.5,6.2,6,8.2,10.5c2,4.6,3.1,9.8,3.1,15.8
	s-1.1,11.2-3.1,15.8c-2,4.6-4.8,8.1-8.4,10.6C248.8,139.9,244.9,141.1,240.5,141.1z M240.5,128.3c2,0,4-0.6,5.7-1.9
	c1.8-1.3,3.3-3.3,4.4-5.9s1.6-5.8,1.6-9.5c0-5.6-1.1-9.8-3.4-12.8c-2.2-3-4.9-4.5-8.2-4.5s-5.9,1.5-8.2,4.5c-2.2,3-3.2,7.2-3.2,12.8
	c0,5.6,1,9.8,3.1,12.9C234.6,126.8,237.3,128.3,240.5,128.3z"/>
<path d="M266,110.8c0-5.9,0.9-11.1,2.7-15.7c1.8-4.6,4.3-8.1,7.4-10.5c3.1-2.5,6.6-3.7,10.4-3.7c2.9,0,5.7,0.8,8.3,2.5
	c2.6,1.6,4.7,3.8,6.3,6.5V62.2h11.5v78h-11.5v-8.6c-1.4,2.9-3.4,5.2-5.9,7c-2.5,1.8-5.5,2.6-8.8,2.6c-3.8,0-7.2-1.3-10.3-3.8
	c-3.1-2.5-5.6-6.1-7.4-10.6C266.9,122.1,266,116.8,266,110.8z M301.2,111c0-3.6-0.5-6.6-1.6-9.2c-1.1-2.6-2.5-4.6-4.4-5.9
	c-1.8-1.4-3.8-2.1-5.9-2.1c-2.1,0-4,0.7-5.8,2c-1.8,1.3-3.2,3.3-4.4,5.9c-1.1,2.5-1.6,5.6-1.6,9.1c0,3.5,0.5,6.6,1.6,9.3
	c1.1,2.6,2.6,4.6,4.4,6c1.8,1.4,3.8,2.1,5.8,2.1c2.1,0,4.1-0.7,5.9-2c1.8-1.4,3.3-3.4,4.4-5.9C300.7,117.7,301.2,114.6,301.2,111z"
	/>
<path d="M362.6,81.8v58.4h-11.4v-7.4c-1.5,2.5-3.4,4.5-5.7,6c-2.3,1.4-4.8,2.1-7.6,2.1c-3.5,0-6.6-0.9-9.3-2.8
	c-2.7-2-4.8-4.8-6.4-8.5c-1.5-3.8-2.3-8.3-2.3-13.5V81.8h11.3V114c0,4.6,0.9,8.2,2.7,10.8c1.8,2.5,4.2,3.7,7.3,3.7
	c3.1,0,5.6-1.2,7.3-3.7c1.8-2.5,2.7-6.1,2.7-10.8V81.8H362.6z"/>
<path d="M367.6,111c0-6,0.9-11.3,2.8-15.8c1.9-4.6,4.5-8.1,7.8-10.5c3.3-2.5,7.2-3.8,11.5-3.8c5.5,0,10.1,1.8,13.7,5.5
	c3.7,3.6,6.1,8.6,7.3,15.2h-12.2c-0.6-2.5-1.7-4.5-3.3-5.9c-1.5-1.5-3.4-2.2-5.7-2.2c-3.2,0-5.8,1.5-7.7,4.6c-1.9,3-2.8,7.3-2.8,13
	c0,5.6,0.9,9.9,2.8,13c1.9,3,4.4,4.5,7.7,4.5c4.6,0,7.6-2.7,9-8h12.2c-1.2,6.3-3.7,11.3-7.3,15.1c-3.7,3.7-8.2,5.6-13.7,5.6
	c-4.3,0-8.1-1.2-11.5-3.7c-3.3-2.5-5.9-6-7.8-10.5C368.6,122.3,367.6,117,367.6,111z"/>
<path d="M429,93.9v28.2c0,2,0.3,3.4,1,4.3c0.8,0.8,2,1.3,3.7,1.3h5.2v12.4h-7.1c-9.5,0-14.3-6-14.3-18.1V93.9h-5.3V81.8h5.3V67.4
	H429v14.4h10v12.1H429z"/>
<path class="st0" d="M448.9,140.9c-2,0-3.7-0.8-5.1-2.4c-1.3-1.7-1.9-3.8-1.9-6.2c0-2.5,0.6-4.5,1.9-6.1c1.3-1.7,3-2.5,5.1-2.5
	c2,0,3.6,0.8,4.9,2.5c1.3,1.6,1.9,3.7,1.9,6.1c0,2.5-0.6,4.5-1.9,6.2C452.6,140.1,450.9,140.9,448.9,140.9z"/>
</svg>
